<svg width="113" height="129" viewBox="0 0 113 129" fill="none" xmlns="http://www.w3.org/2000/svg">
<path d="M84.6562 6.88135V28.2188H105.994L84.6562 6.88135Z" fill="#D6DEE2"/>
<path d="M82.6406 32.25C81.526 32.25 80.625 31.349 80.625 30.2344V4.03125H8.0625C5.83725 4.03125 4.03125 5.83725 4.03125 8.0625V120.938C4.03125 123.163 5.83725 124.969 8.0625 124.969H104.812C107.038 124.969 108.844 123.163 108.844 120.938V32.25H82.6406Z" fill="#D6DEE2"/>
<path d="M20.1562 52.4062C20.1562 53.5209 21.0572 54.4219 22.1719 54.4219H90.7031C91.8178 54.4219 92.7188 53.5209 92.7188 52.4062C92.7188 51.2916 91.8178 50.3906 90.7031 50.3906H22.1719C21.0572 50.3906 20.1562 51.2916 20.1562 52.4062Z" fill="#394240"/>
<path d="M90.7031 74.5781H22.1719C21.0572 74.5781 20.1562 75.4791 20.1562 76.5938C20.1562 77.7084 21.0572 78.6094 22.1719 78.6094H90.7031C91.8178 78.6094 92.7188 77.7084 92.7188 76.5938C92.7188 75.4791 91.8178 74.5781 90.7031 74.5781Z" fill="#394240"/>
<path d="M90.7031 86.6719H22.1719C21.0572 86.6719 20.1562 87.5729 20.1562 88.6875C20.1562 89.8021 21.0572 90.7031 22.1719 90.7031H90.7031C91.8178 90.7031 92.7188 89.8021 92.7188 88.6875C92.7188 87.5729 91.8178 86.6719 90.7031 86.6719Z" fill="#394240"/>
<path d="M90.7031 98.7656H22.1719C21.0572 98.7656 20.1562 99.6666 20.1562 100.781C20.1562 101.896 21.0572 102.797 22.1719 102.797H90.7031C91.8178 102.797 92.7188 101.896 92.7188 100.781C92.7188 99.6666 91.8178 98.7656 90.7031 98.7656Z" fill="#394240"/>
<path d="M90.7031 62.4844H22.1719C21.0572 62.4844 20.1562 63.3854 20.1562 64.5C20.1562 65.6146 21.0572 66.5156 22.1719 66.5156H90.7031C91.8178 66.5156 92.7188 65.6146 92.7188 64.5C92.7188 63.3854 91.8178 62.4844 90.7031 62.4844Z" fill="#394240"/>
<path d="M22.1719 40.3125H54.4219C55.5365 40.3125 56.4375 39.4115 56.4375 38.2969C56.4375 37.1822 55.5365 36.2812 54.4219 36.2812H22.1719C21.0572 36.2812 20.1562 37.1822 20.1562 38.2969C20.1562 39.4115 21.0572 40.3125 22.1719 40.3125Z" fill="#394240"/>
<path d="M112.282 28.8073L84.0677 0.592594C83.7029 0.22575 83.199 0 82.6406 0H8.0625C3.60595 0 0 3.60595 0 8.0625V120.938C0 125.394 3.60595 129 8.0625 129H104.812C109.269 129 112.875 125.394 112.875 120.938V30.2344C112.875 29.676 112.649 29.1721 112.282 28.8073ZM84.6562 6.88134L105.994 28.2188H84.6562V6.88134ZM108.844 120.938C108.844 123.163 107.038 124.969 104.812 124.969H8.0625C5.83725 124.969 4.03125 123.163 4.03125 120.938V8.0625C4.03125 5.83725 5.83725 4.03125 8.0625 4.03125H80.625V30.2344C80.625 31.349 81.526 32.25 82.6406 32.25H108.844V120.938Z" fill="#394240"/>
<path opacity="0.15" d="M84.6562 6.88135L105.994 28.2188H84.6562V6.88135Z" fill="#231F20"/>
</svg>
