<svg width="100" height="23" viewBox="0 0 100 23" fill="none" xmlns="http://www.w3.org/2000/svg">
<path d="M29.2443 22.8747H1.95788C0.892057 22.8747 0 22.0342 0 20.9412V2.06335C0 0.997809 0.867435 0.105469 1.95788 0.105469H29.2443C30.3101 0.105469 31.2022 0.972904 31.2022 2.06335V20.9163C31.1773 22.0313 30.3098 22.8741 29.2443 22.8741V22.8747Z" fill="#F2F2F2"/>
<path opacity="0.1" d="M3.89091 22.875L15.5638 14.3317L15.6382 13.8365L3.61866 5.18701L3.59375 22.4508L3.89091 22.875Z" fill="#221F1F"/>
<path d="M1.95788 22.8747C0.867435 22.8747 0 22.0342 0 20.9412V2.03591C0 0.945462 0.867435 0.74707 1.95788 0.74707C3.04833 0.74707 3.91577 0.970085 3.91577 2.03591V22.8713L1.95788 22.8747Z" fill="#D44C3D"/>
<path d="M1.95788 1.04744C3.34578 1.04744 3.61832 1.47196 3.61832 2.03884V22.602H1.95788C1.51758 22.6018 1.09537 22.4268 0.784026 22.1154C0.472682 21.8041 0.297672 21.3819 0.297447 20.9416V2.03884C0.272542 1.44395 0.569988 1.04744 1.95788 1.04744ZM1.95788 0.774902C0.867435 0.774902 0 0.997917 0 2.03884V20.9164C0 22.0314 0.867435 22.8743 1.95788 22.8743H3.91577V2.03884C3.89086 0.973294 3.04833 0.774902 1.95788 0.774902ZM29.2443 1.04744C30.5082 1.04744 30.9047 1.29536 30.9047 1.98931V20.9662C30.9045 21.4065 30.7295 21.8287 30.4182 22.14C30.1068 22.4514 29.6846 22.6264 29.2443 22.6266H27.5839V1.98931C27.559 1.27046 27.9801 1.04744 29.2443 1.04744ZM29.2443 0.774902C28.1538 0.774902 27.2864 0.923484 27.2864 1.99186V22.902H29.2443C30.3347 22.902 31.2022 22.0346 31.2022 20.9441V1.96441C31.1773 0.898579 30.3098 0.774902 29.2443 0.774902Z" fill="#D44C3D"/>
<path d="M29.245 22.8749H27.2871V1.98942C27.2871 0.898968 28.1545 0.772461 29.245 0.772461C30.3354 0.772461 31.2029 0.921043 31.2029 1.98942V20.9663C31.178 22.0321 30.3105 22.8749 29.245 22.8749Z" fill="#D44C3D"/>
<path opacity="0.08" d="M20.8924 22.8747L0.173828 2.8563L1.26428 3.30233L15.6878 13.6866L31.2025 2.30811V20.9629C31.2025 22.0287 30.3351 22.8959 29.2446 22.8959L20.8924 22.8747Z" fill="#221F1F"/>
<path d="M15.565 14.3562L0.843778 3.67445C-0.0236571 3.03003 -0.271576 1.79099 0.372844 0.92356C1.01726 0.0561251 2.2563 -0.141984 3.14835 0.502154L15.5868 9.54782L28.1025 0.378194C28.9733 -0.265944 30.1902 -0.0678346 30.8315 0.824505C31.476 1.69194 31.2776 2.90635 30.3855 3.55077L15.565 14.3562Z" fill="#D44C3D"/>
<path d="M29.2448 0.304283C29.7656 0.304283 30.2858 0.552202 30.6078 0.998231C31.1286 1.74171 30.9797 2.78263 30.236 3.32799L15.5646 14.0098L1.01656 3.45195C0.273086 2.90659 0.0746943 1.84104 0.592042 1.12219C0.889206 0.676162 1.41278 0.403337 1.97994 0.403337C2.35182 0.403337 2.69879 0.502392 2.97133 0.725406L15.388 9.74673L15.5614 9.84578L15.7349 9.74673L28.2257 0.577107C28.5478 0.40362 28.8701 0.304566 29.2446 0.304566L29.2448 0.304283ZM29.2448 0.00711896C28.8486 0.00711896 28.4241 0.106174 28.1049 0.378998L15.5861 9.54805L3.12303 0.477487C2.80096 0.22985 2.37955 0.10589 1.95843 0.10589C1.3358 0.130796 0.719398 0.403054 0.347519 0.926628C-0.27511 1.79406 -0.0243603 3.00847 0.842792 3.65289L15.564 14.3593L30.3877 3.55384C30.8048 3.24876 31.0853 2.79199 31.1687 2.282C31.2521 1.77202 31.1318 1.24967 30.8337 0.827574C30.4375 0.30683 29.8423 0.00683594 29.2477 0.00683594L29.2448 0.00711896Z" fill="#D44C3D"/>
<path d="M58.6893 12.1281C58.6893 14.4687 57.9948 16.3337 56.6063 17.7227C55.0455 19.3772 52.9934 20.2042 50.4499 20.2042C48.0155 20.2042 45.9557 19.3614 44.2703 17.676C42.585 15.9907 41.7422 13.9154 41.7422 11.4498C41.7422 8.98414 42.585 6.90881 44.2703 5.22347C45.9557 3.53813 48.0155 2.69531 50.4499 2.69531C51.6825 2.69531 52.8454 2.9138 53.9378 3.35049C55.0302 3.78718 55.9274 4.40386 56.6264 5.19969L55.0817 6.74495C54.5666 6.1209 53.8996 5.6327 53.0803 5.28177C52.2609 4.93083 51.3833 4.75536 50.4468 4.75536C48.6214 4.75536 47.079 5.38705 45.8122 6.65155C44.5635 7.93077 43.9395 9.53064 43.9395 11.45C43.9395 13.3694 44.5635 14.9696 45.8122 16.2488C47.0761 17.5127 48.6211 18.145 50.4468 18.145C52.1166 18.145 53.5053 17.6769 54.6136 16.7404C55.7219 15.8039 56.3612 14.5168 56.533 12.8784H50.4468V10.8653H58.5693C58.6455 11.2824 58.6847 11.7053 58.6865 12.1293L58.6893 12.1281ZM63.0873 19.8267H60.9364V8.35982H62.9962V9.95148H63.0896C63.4173 9.3897 63.9205 8.92131 64.5994 8.54689C65.2784 8.17246 65.9528 7.98539 66.6241 7.98539C67.4669 7.98539 68.2079 8.1835 68.8478 8.57038C69.4751 8.94643 69.9669 9.51199 70.2521 10.1855C71.2038 8.71868 72.5227 7.98539 74.2086 7.98539C75.5348 7.98539 76.557 8.39123 77.275 9.20235C77.993 10.0135 78.3519 11.1684 78.3519 12.6664V19.8267H76.201V12.9947C76.201 11.9179 76.0029 11.1418 75.6157 10.6655C75.2286 10.1892 74.5703 9.95177 73.6496 9.95177C72.8224 9.95177 72.1282 10.3027 71.5667 11.0051C71.0052 11.7076 70.7239 12.5345 70.7239 13.4866V19.8267H68.573V12.9947C68.573 11.9179 68.3748 11.1418 67.988 10.6655C67.6011 10.1892 66.9425 9.95177 66.0219 9.95177C65.1943 9.95177 64.5001 10.3027 63.9389 11.0051C63.3777 11.7076 63.0961 12.5345 63.0961 13.4866V19.8267H63.0873ZM85.1136 7.98539C86.7053 7.98539 87.9616 8.41076 88.8823 9.26093C89.8029 10.1111 90.2634 11.2782 90.2634 12.7604V19.8267H88.2036V18.235H88.1102C87.2207 19.5459 86.0346 20.2011 84.5522 20.2011C83.2882 20.2011 82.2309 19.8267 81.3804 19.0775C80.53 18.3284 80.1046 17.3922 80.1046 16.2683C80.1046 15.0797 80.5532 14.1384 81.4506 13.4359C82.348 12.7335 83.5458 12.3826 85.0437 12.3826C86.323 12.3826 87.3763 12.6166 88.2039 13.0844V12.5928C88.2039 11.844 87.9073 11.2081 87.3141 10.6853C86.7209 10.1626 86.0264 9.90139 85.2311 9.90139C84.0291 9.90139 83.0802 10.4088 82.3727 11.4232L80.4765 10.2288C81.5217 8.73085 83.0666 7.98171 85.1111 7.98171L85.1136 7.98539ZM82.328 16.3184C82.328 16.8799 82.5657 17.3486 83.042 17.7227C83.5183 18.0969 84.075 18.2845 84.7155 18.2845C85.6202 18.2845 86.4277 17.9491 87.138 17.2778C87.8484 16.6065 88.2033 15.8189 88.2033 14.9135C87.532 14.3832 86.5958 14.1177 85.3941 14.1177C84.5202 14.1177 83.7908 14.3283 83.2056 14.7494C82.6203 15.1705 82.3277 15.6938 82.3277 16.3179L82.328 16.3184ZM95.4838 4.40358C95.4872 4.60395 95.4495 4.80289 95.3729 4.98811C95.2964 5.17333 95.1827 5.34089 95.0389 5.48044C94.7423 5.77704 94.3837 5.92477 93.9621 5.92477C93.5404 5.92477 93.1815 5.77676 92.8852 5.48044C92.5889 5.18413 92.4409 4.82527 92.4409 4.40358C92.4374 4.20323 92.4751 4.0043 92.5516 3.81908C92.6281 3.63387 92.7417 3.46629 92.8855 3.32671C93.025 3.18294 93.1926 3.06931 93.3778 2.99284C93.5631 2.91637 93.762 2.87868 93.9623 2.8821C94.1627 2.87868 94.3616 2.91637 94.5468 2.99284C94.732 3.06931 94.8996 3.18294 95.0392 3.32671C95.3355 3.62388 95.4841 3.98217 95.4841 4.40358H95.4838ZM95.0389 8.3601V19.8267H92.888V8.35982L95.0389 8.3601ZM100.001 3.07229V19.8267H97.8498V3.07229H100.001Z" fill="#787879"/>
</svg>
