<svg width="119" height="31" viewBox="0 0 119 31" fill="none" xmlns="http://www.w3.org/2000/svg">
<g id="scip_logo_big">
<path id="Fill 1" fill-rule="evenodd" clip-rule="evenodd" d="M14.8697 15.1032V12.6539L10.7803 8.56142L8.33301 11.0108L12.4224 15.1032H14.8697Z" fill="#00A1D4"/>
<path id="Fill 2" fill-rule="evenodd" clip-rule="evenodd" d="M14.8696 15.1031H17.3171L21.4065 11.0106L18.959 8.56153L14.8696 12.654V15.1031Z" fill="#57B847"/>
<path id="Fill 3" fill-rule="evenodd" clip-rule="evenodd" d="M21.4063 19.1954L17.3169 15.1032V15.103H14.8696V17.5523L18.959 21.6448L21.4063 19.1954Z" fill="#EBA021"/>
<path id="Fill 4" fill-rule="evenodd" clip-rule="evenodd" d="M14.8699 15.1032H12.4224L8.33301 19.1956L10.7805 21.6448L14.8699 17.5523V15.1032Z" fill="#E16349"/>
<g id="Group 16">
<path id="Fill 5" fill-rule="evenodd" clip-rule="evenodd" d="M56.2775 5.26911L54.0372 10.0838C51.3194 8.46689 48.0876 7.438 46.0309 7.438C44.0844 7.438 42.7623 8.13622 42.7623 9.53266C42.7623 14.2738 56.4611 11.6276 56.4245 20.8896C56.4245 25.9247 52.054 28.6444 46.3616 28.6444C42.1383 28.6444 37.9146 27.0271 35.0132 24.5647L37.327 19.8238C39.9713 22.176 43.7173 23.6827 46.4349 23.6827C48.8222 23.6827 50.2544 22.8004 50.2544 21.2202C50.2544 16.3689 36.5558 19.1989 36.5558 10.0838C36.5558 5.41644 40.5588 2.476 46.5086 2.476C50.1074 2.476 53.7068 3.57866 56.2775 5.26911Z" fill="#00A1D4"/>
<path id="Fill 7" fill-rule="evenodd" clip-rule="evenodd" d="M82.4996 6.81285L79.1208 10.9293C77.3581 8.90774 74.824 7.58485 72.4369 7.58485C68.0298 7.58485 64.6141 11.0028 64.6141 15.4868C64.6141 19.9704 68.0298 23.4255 72.4369 23.4255C74.7507 23.4255 77.2846 22.2495 79.1208 20.4115L82.5365 24.1237C79.8187 26.9168 75.889 28.718 72.1429 28.718C64.4673 28.718 58.6646 23.0211 58.6646 15.56C58.6646 8.13618 64.5775 2.54951 72.3634 2.54951C76.0729 2.54951 79.9655 4.20329 82.4996 6.81285Z" fill="#EBA021"/>
<mask id="mask0_0_24024" style="mask-type:luminance" maskUnits="userSpaceOnUse" x="0" y="0" width="119" height="30">
<path id="Clip 10" fill-rule="evenodd" clip-rule="evenodd" d="M0 29.984H118.674V0.222221H0V29.984Z" fill="white"/>
</mask>
<g mask="url(#mask0_0_24024)">
<path id="Fill 9" fill-rule="evenodd" clip-rule="evenodd" d="M85.9883 28.4604H91.7911V2.73334H85.9883V28.4604Z" fill="#57B847"/>
<path id="Fill 11" fill-rule="evenodd" clip-rule="evenodd" d="M103.286 16.2587H108.097C111.329 16.2587 113.165 14.7882 113.165 11.8478C113.165 8.98113 111.329 7.54802 108.097 7.54802H103.286V16.2587ZM108.39 2.73335C114.928 2.73335 118.674 5.96735 118.674 11.6645C118.674 17.6554 114.928 21.11 108.39 21.11H103.286V28.4607H97.4829V2.73335H108.39Z" fill="#E16349"/>
<path id="Fill 12" fill-rule="evenodd" clip-rule="evenodd" d="M0.164321 15.095L3.46119 11.7956V3.68607H11.5647L14.8695 0.378734V0.22229H0V15.1032H0.172538L0.164321 15.095Z" fill="#00A1D4"/>
<path id="Fill 13" fill-rule="evenodd" clip-rule="evenodd" d="M14.8696 0.222336V0.37878L14.9429 0.305447L18.321 3.68611H26.278V11.649L29.7214 15.095L29.7132 15.103H29.7394V0.222336H14.8696Z" fill="#57B847"/>
<path id="Fill 14" fill-rule="evenodd" clip-rule="evenodd" d="M26.278 18.5409V26.52H18.3046L14.9429 29.8845L14.8696 29.8114V29.984H29.7392V15.1031H29.7132L26.278 18.5409Z" fill="#EBA021"/>
<path id="Fill 15" fill-rule="evenodd" clip-rule="evenodd" d="M3.46119 26.5201V18.3943L0.172538 15.1032H0V29.9841H14.8698V29.8114L11.5809 26.5201H3.46119Z" fill="#E16349"/>
</g>
</g>
</g>
</svg>
