<?xml version="1.0" encoding="UTF-8"?>
<svg width="87px" height="100px" viewBox="0 0 87 100" version="1.1" xmlns="http://www.w3.org/2000/svg" xmlns:xlink="http://www.w3.org/1999/xlink">
    <!-- Generator: sketchtool 57.1 (101010) - https://sketch.com -->
    <title>D25853DE-B473-4AAC-A883-41541A01AFBA</title>
    <desc>Created with sketchtool.</desc>
    <g id="Page-3" stroke="none" stroke-width="1" fill="none" fill-rule="evenodd">
        <g id="Application-Success-Opt2" transform="translate(-676.000000, -348.000000)">
            <g id="Group-11" transform="translate(370.000000, 250.000000)">
                <g id="thanks" transform="translate(306.000000, 98.000000)">
                    <path d="M73.4662942,11.8559222 L77.6630715,18.623012 L86.2743997,20.7557025 L80.5190286,27.3974261 L81.5219582,35.3822894 L73.3659772,32.3061175 L66.3539167,35.3822894 L65.4550637,32.3061175 L66.3539167,27.3974261 L60.9999856,20.7557025 L69.0097512,18.623012 L73.4662942,11.8559222 Z M14.4662942,11.8559222 L18.6630715,18.623012 L27.2743997,20.7557025 L21.5190286,27.3974261 L22.5219582,35.3822894 L14.3659772,32.3061175 L7.35391666,35.3822894 L6.45506372,32.3061175 L7.35391666,27.3974261 L1.99998559,20.7557025 L10.0097512,18.623012 L14.4662942,11.8559222 Z M43.9999856,1.3505511 L48.1967629,8.11764094 L56.8080911,10.2503314 L51.05272,16.892055 L52.0556497,24.8769183 L43.8996686,21.8007464 L36.8876081,24.8769183 L35.9887551,21.8007464 L36.8876081,16.892055 L31.533677,10.2503314 L39.5434426,8.11764094 L43.9999856,1.3505511 Z" id="Path-13" fill="#FCC361"></path>
                    <path d="M79.6213545,25.3973055 C79.0055043,25.9978818 78.7243804,26.8625793 78.8697695,27.7111383 L79.9095389,33.773098 L74.4653026,30.9109942 C74.0844669,30.7108501 73.6667435,30.6108501 73.2488761,30.6108501 C72.8310086,30.6108501 72.4131412,30.7108501 72.0323055,30.9109942 L66.5882133,33.773098 L67.6279827,27.7111383 C67.7735159,26.8627233 67.492536,25.9977378 66.8761095,25.3970173 L62.4717867,21.1039337 L68.558098,20.2193516 C69.409683,20.0958646 70.1458501,19.5614265 70.5269741,18.7892363 L73.2488761,13.2738184 L75.9707781,18.7893804 C76.351902,19.5614265 77.087781,20.0958646 77.939366,20.2193516 L84.0259654,21.1039337 L79.6213545,25.3973055 Z M40.9245411,40.0943783 L41.0626801,40.1291499 L43.5907781,40.8975937 C46.1276657,41.6689193 48.1933718,43.3922622 49.4070605,45.7498991 C50.5679802,48.0051679 50.8035511,50.5575924 50.0809864,52.9746397 L49.976513,53.3033573 L47.8789625,59.5305908 L63.9135447,59.5305908 C67.2838617,59.5305908 70.0257925,62.2725216 70.0257925,65.6428386 C70.0257925,66.8919741 69.648415,68.0545101 69.0025937,69.0233862 C71.7304035,69.6360663 73.7752161,72.0759798 73.7752161,74.9859222 C73.7752161,77.7811671 71.8880403,80.1426945 69.3214697,80.8673343 C70.0005764,81.8520605 70.3994236,83.0444236 70.3994236,84.3284294 C70.3994236,87.2014841 68.4060519,89.6167579 65.7299712,90.2670461 C66.3851585,91.2406772 66.7681556,92.4118588 66.7681556,93.6710807 C66.7681556,96.9663609 64.1467343,99.6611484 60.8796414,99.7792894 L60.6559078,99.7833285 L35.4779539,99.7833285 C32.884121,99.7833285 30.3407474,99.3350954 27.9093378,98.4503444 L27.3900576,98.2540778 L25.356196,97.4563833 C24.5796306,98.7835316 23.1701131,99.6972456 21.544342,99.7775685 L21.3106628,99.7833285 L1.44092219,99.7833285 C0.6920495,99.7833285 0.0764316983,99.2116344 0.00659732956,98.481015 L3.69482223e-13,98.3422622 L3.69482223e-13,60.9716571 C3.69482223e-13,60.2227844 0.571566467,59.6071666 1.30217086,59.5373322 L1.44092219,59.5307349 L21.3106628,59.5307349 C22.7726465,59.5307349 24.0797555,60.2042148 24.9395701,61.2569342 L25.0865994,61.446585 L29.0550432,59.2854899 C31.8572099,57.7597348 34.0228282,55.3028071 35.1862247,52.340468 L35.3159942,51.9964409 L39.2884726,41.0174784 C39.5329791,40.3417759 40.2326425,39.9558339 40.9245411,40.0943783 Z M41.5331412,43.284049 L38.0259366,52.9768444 C36.7057935,56.6253587 34.1466259,59.6775993 30.7953601,61.6132328 L30.4332853,61.8163256 L25.9956772,64.2328963 L25.9956772,69.1082565 C25.9956772,69.9037896 25.3504323,70.5491787 24.554755,70.5491787 C23.8058824,70.5491787 23.1902646,69.9774846 23.1204302,69.2469853 L23.1138329,69.1082565 L23.1138329,64.2156052 C23.1138329,63.2709438 22.3837702,62.4937781 21.4583305,62.4184232 L21.3106628,62.4124352 L2.88184438,62.4124352 L2.88184438,96.9014841 L21.3106628,96.9014841 C22.2553242,96.9014841 23.0324899,96.1711614 23.1078448,95.2456957 L23.1138329,95.0980259 L23.1138329,80.4749712 C23.1138329,79.6791499 23.7590778,79.034049 24.554755,79.034049 C25.3036277,79.034049 25.9192455,79.6054878 25.9890799,80.3361973 L25.9956772,80.4749712 L25.9956772,94.6117147 L28.442219,95.5710807 C30.5324413,96.390739 32.7228033,96.8353083 34.9606971,96.8946363 L35.4779539,96.9014841 L60.6559078,96.9014841 C62.4371758,96.9014841 63.8863112,95.4523487 63.8863112,93.6710807 C63.8863112,91.9512357 62.5353931,90.5410125 60.8389463,90.4458008 L60.6559078,90.4406772 L52.8425072,90.4406772 C52.04683,90.4406772 51.401585,89.7952882 51.401585,88.999755 C51.401585,88.2507467 51.9731515,87.6352486 52.7037559,87.5654288 L52.8425072,87.5588329 L64.2871758,87.5588329 C66.0684438,87.5588329 67.5175793,86.1096974 67.5175793,84.3284294 C67.5175793,82.6085844 66.1666611,81.1983612 64.4702143,81.1031495 L64.2871758,81.0980259 L52.8423631,81.0980259 C52.0466859,81.0980259 51.4014409,80.4526369 51.4014409,79.6571037 C51.4014409,78.9082311 51.9730074,78.2926133 52.7036118,78.2227789 L52.8423631,78.2161816 L67.6629683,78.2161816 C69.4442363,78.2161816 70.8933718,76.7670461 70.8933718,74.985634 C70.8933718,73.265789 69.5424536,71.8555658 67.8460068,71.7603541 L67.6629683,71.7552305 L52.8423631,71.7547983 C52.0466859,71.7547983 51.4014409,71.1095533 51.4014409,70.3138761 C51.4014409,69.5650034 51.9730074,68.9493856 52.7036118,68.8795512 L52.8423631,68.8729539 L63.9135447,68.8729539 C65.6948127,68.8729539 67.1439481,67.4238184 67.1439481,65.6424063 C67.1439481,63.9227005 65.7930299,62.5124821 64.0965832,62.4172705 L63.9135447,62.412147 L45.8731988,62.412147 C45.4092219,62.412147 44.9736311,62.1886599 44.7028818,61.8118588 C44.462472,61.4769244 44.3782652,61.0572852 44.4665548,60.6593029 L44.507781,60.5112824 L47.2455331,52.3831844 C47.8410663,50.6150288 47.6988473,48.7277089 46.8448127,47.0687752 C46.0358638,45.4971538 44.688928,44.3263067 43.03152,43.7458907 L42.7524496,43.6546542 L41.5331412,43.284049 Z M15.730951,85.8826945 C17.9564553,85.8826945 19.7671182,87.6933573 19.7671182,89.9187176 C19.7671182,92.1445101 17.9565994,93.9548847 15.730951,93.9548847 C13.5053026,93.9548847 11.6947839,92.144366 11.6947839,89.9187176 C11.6947839,87.6932133 13.5054467,85.8826945 15.730951,85.8826945 Z M15.730951,88.7645389 C15.0944957,88.7645389 14.5766282,89.2822622 14.5766282,89.9187176 C14.5766282,90.5551729 15.0944957,91.0730403 15.730951,91.0730403 C16.3674063,91.0730403 16.8852738,90.5551729 16.8852738,89.9187176 C16.8852738,89.2822622 16.3674063,88.7645389 15.730951,88.7645389 Z M24.5547695,73.2544236 C24.933732,73.2544236 25.3054899,73.4073055 25.5733573,73.6751729 C25.841513,73.9446254 25.9956916,74.3163833 25.9956916,74.6939049 C25.9956916,75.0743084 25.8413689,75.4446254 25.5733573,75.712781 C25.3054899,75.9820893 24.933732,76.1348271 24.5547695,76.1348271 C24.1756628,76.1348271 23.804049,75.9820893 23.5360375,75.712781 C23.2678818,75.4446254 23.1138473,75.0744524 23.1138473,74.6939049 C23.1138473,74.3163833 23.2680259,73.9446254 23.5360375,73.6751729 C23.804049,73.4074496 24.1756628,73.2544236 24.5547695,73.2544236 Z M73.2488761,10.2503314 C74.1886726,10.2503314 75.0367791,10.7410752 75.5046859,11.5430455 L75.5931124,11.707536 L78.4354755,17.4667579 L84.7912392,18.390389 C85.78317,18.5344813 86.5918156,19.2160375 86.9017579,20.1692075 C87.1923289,21.0629395 86.9874703,22.021513 86.3695796,22.7146257 L86.2405187,22.849611 L81.6410951,27.3327522 L82.7266859,33.6625793 C82.8962824,34.6504755 82.4977233,35.6303026 81.6869164,36.2194957 C81.2285591,36.5524928 80.6923919,36.7216996 80.1526225,36.7216996 C79.8062008,36.7216996 79.4585783,36.6521255 79.128934,36.5115257 L78.9334582,36.4186311 L73.2488761,33.4300144 L67.5641499,36.4186311 C66.6763977,36.8850576 65.6219308,36.8088329 64.8108357,36.2194957 C64.0505692,35.6671272 63.6528831,34.771428 63.7458854,33.8475031 L63.7710663,33.6624352 L64.8566571,27.3327522 L60.2576657,22.849611 C59.5395101,22.149755 59.2863401,21.1226657 59.5959942,20.1692075 C59.8865652,19.2756106 60.6154495,18.6207368 61.5228695,18.4236398 L61.7066571,18.390389 L68.0621326,17.4667579 L70.9044957,11.707536 C71.3481556,10.8086888 72.2462824,10.2503314 73.2488761,10.2503314 Z M14.4964121,10.2501153 C15.4363437,10.2501153 16.2845853,10.740859 16.7525084,11.5428293 L16.8409366,11.7073199 L19.6832997,17.4665418 L26.0390634,18.3901729 C27.0309942,18.5342651 27.8396398,19.2158213 28.1495821,20.1691354 C28.4398829,21.0630025 28.2352607,22.0215845 27.6170444,22.7144603 L27.4879107,22.8493948 L22.8887752,27.332536 L23.9745101,33.6623631 C24.1438184,34.6505476 23.7454035,35.6305187 22.9343084,36.2195677 C22.1774207,36.7693468 21.2081527,36.8725245 20.360857,36.5044989 L20.1812824,36.418415 L14.4967003,33.4297983 L8.81211816,36.418415 C8.4260951,36.6212968 8.00837176,36.7215672 7.59295389,36.7215672 C7.05304035,36.7215672 6.51701729,36.5524207 6.05865994,36.2194236 C5.29852846,35.66692 4.90072418,34.771339 4.99371115,33.8473108 L5.01889049,33.662219 L6.10433718,27.3323919 L1.50520173,22.849683 C0.787334294,22.1495389 0.533876081,21.1224496 0.843818444,20.1691354 C1.13438941,19.2754035 1.86327371,18.6205212 2.77069375,18.4234237 L2.95448127,18.3901729 L9.30995677,17.4665418 L12.1521758,11.7073199 C12.5958357,10.8084726 13.4942507,10.2501153 14.4964121,10.2501153 Z M14.4964121,13.2736023 L11.7745101,18.7891643 C11.4208769,19.506198 10.760861,20.0183554 9.98655066,20.1867331 L9.80592219,20.2194236 L3.71889049,21.1038617 L8.12335735,25.3969452 C8.6954858,25.9551585 8.97874978,26.7408603 8.89977506,27.5291978 L8.87508646,27.7110663 L7.8354611,33.77317 L13.2794092,30.9110663 C13.9827566,30.5415695 14.8119502,30.5129011 15.5346585,30.8258545 L15.7129827,30.9112104 L21.1569308,33.77317 L20.1171614,27.7110663 C19.9820235,26.9232524 20.2146442,26.1212748 20.7422261,25.5296402 L20.8691787,25.3969452 L25.2732133,21.1040058 L19.186902,20.2194236 C18.3957431,20.1047571 17.7045996,19.6352532 17.3050983,18.9506229 L17.21817,18.7888761 L14.4964121,13.2736023 Z M43.8998127,1.56319402e-13 C44.8396091,1.56319402e-13 45.6878423,0.490743764 46.1556462,1.29271406 L46.244049,1.45720461 L49.0864121,7.21642651 L55.4421758,8.14005764 C56.4341066,8.28414986 57.2427522,8.96570605 57.5526945,9.91887608 C57.8432655,10.8126081 57.6385335,11.7711816 57.0204212,12.4642943 L56.8913112,12.5992795 L52.2920317,17.0824207 L53.3776225,23.4122478 C53.547219,24.4001441 53.148804,25.3799712 52.337853,25.9693084 C51.8794957,26.3021614 51.3431844,26.4713256 50.803415,26.4713256 C50.4571134,26.4713256 50.1095109,26.4018812 49.7798699,26.2612412 L49.5843948,26.1682997 L43.8998127,23.179683 L38.2152305,26.1682997 C37.3274784,26.6345821 36.2728674,26.5585014 35.4617723,25.9693084 C34.7016409,25.4168048 34.3038366,24.5210971 34.3968235,23.5971717 L34.4220029,23.4121037 L35.5075937,17.0824207 L30.9083141,12.5994236 C30.1904467,11.8992795 29.9369885,10.8721902 30.2469308,9.91887608 C30.5375018,9.02527918 31.2663861,8.37027873 32.1738061,8.17328468 L32.3575937,8.14005764 L38.7130692,7.21642651 L41.5554323,1.45720461 C41.9992363,0.558357349 42.8973631,1.56319402e-13 43.8998127,1.56319402e-13 Z M43.8998127,3.02363112 L41.1779107,8.53904899 C40.8240099,9.25608275 40.1639749,9.76811592 39.3896632,9.93659118 L39.2090346,9.96930836 L33.1224352,10.8537464 L37.526902,15.14683 C38.0990305,15.7047756 38.3824187,16.4903341 38.3033464,17.2789986 L38.2786311,17.460951 L37.2390058,23.5230548 L42.6829539,20.660951 C43.3861683,20.2913212 44.2155972,20.2628882 44.9380025,20.5756518 L45.1162392,20.660951 L50.5604755,23.5230548 L49.5207061,17.460951 C49.3858357,16.6727357 49.6185998,15.8707294 50.1458548,15.2794389 L50.2727233,15.14683 L54.676902,10.8537464 L48.5903026,9.96930836 C47.7995451,9.85450803 47.1085545,9.38549153 46.7087269,8.70104693 L46.6217147,8.53933718 L43.8998127,3.02363112 Z" id="Fill-13" fill="#2F3233"></path>
                </g>
            </g>
        </g>
    </g>
</svg>