<svg width="34" height="34" viewBox="0 0 34 34" fill="none" xmlns="http://www.w3.org/2000/svg">
<g filter="url(#filter0_d_8206_22109)">
<rect x="2" y="1" width="30" height="30" rx="8" fill="#0194BE"/>
<g clip-path="url(#clip0_8206_22109)">
<path d="M23.75 7.5625H14.75C14.3024 7.5625 13.8732 7.74029 13.5568 8.05676C13.2403 8.37322 13.0625 8.80245 13.0625 9.25V13.75C13.0625 13.8992 13.1218 14.0423 13.2273 14.1477C13.3327 14.2532 13.4758 14.3125 13.625 14.3125C13.7742 14.3125 13.9173 14.2532 14.0227 14.1477C14.1282 14.0423 14.1875 13.8992 14.1875 13.75V9.25C14.1875 9.10082 14.2468 8.95774 14.3523 8.85225C14.4577 8.74676 14.6008 8.6875 14.75 8.6875H22.7105L19.6168 9.84794C19.5091 9.88788 19.4163 9.95978 19.3508 10.054C19.2852 10.1482 19.2501 10.2602 19.25 10.375V21.625C19.2499 21.7396 19.2848 21.8514 19.3501 21.9456C19.4153 22.0398 19.5078 22.1118 19.6151 22.1521L22.7105 23.3125H14.75C14.6008 23.3125 14.4577 23.2532 14.3523 23.1477C14.2468 23.0423 14.1875 22.8992 14.1875 22.75V18.25C14.1875 18.1008 14.1282 17.9577 14.0227 17.8523C13.9173 17.7468 13.7742 17.6875 13.625 17.6875C13.4758 17.6875 13.3327 17.7468 13.2273 17.8523C13.1218 17.9577 13.0625 18.1008 13.0625 18.25V22.75C13.0625 23.1976 13.2403 23.6268 13.5568 23.9432C13.8732 24.2597 14.3024 24.4375 14.75 24.4375H23.75C24.1976 24.4375 24.6268 24.2597 24.9432 23.9432C25.2597 23.6268 25.4375 23.1976 25.4375 22.75V9.25C25.4375 8.80245 25.2597 8.37322 24.9432 8.05676C24.6268 7.74029 24.1976 7.5625 23.75 7.5625ZM20.375 10.7648L24.3125 9.28825V22.7118L20.375 21.2352V10.7648Z" fill="white"/>
<path d="M14.9148 17.2899C14.8611 17.3417 14.8182 17.4038 14.7888 17.4724C14.7593 17.5411 14.7438 17.6149 14.7431 17.6896C14.7425 17.7643 14.7567 17.8383 14.785 17.9075C14.8133 17.9766 14.855 18.0394 14.9078 18.0922C14.9607 18.145 15.0235 18.1868 15.0926 18.2151C15.1617 18.2434 15.2358 18.2576 15.3105 18.2569C15.3852 18.2563 15.459 18.2408 15.5276 18.2113C15.5962 18.1818 15.6583 18.139 15.7102 18.0852L17.3977 16.3977C17.5031 16.2922 17.5624 16.1492 17.5624 16C17.5624 15.8509 17.5031 15.7078 17.3977 15.6024L15.7102 13.9149C15.6041 13.8124 15.462 13.7557 15.3145 13.757C15.167 13.7583 15.026 13.8174 14.9217 13.9217C14.8174 14.026 14.7582 14.1671 14.7569 14.3146C14.7557 14.4621 14.8123 14.6041 14.9148 14.7102L15.6421 15.4375H9.125C8.97582 15.4375 8.83274 15.4968 8.72725 15.6023C8.62176 15.7078 8.5625 15.8509 8.5625 16C8.5625 16.1492 8.62176 16.2923 8.72725 16.3978C8.83274 16.5033 8.97582 16.5625 9.125 16.5625H15.6421L14.9148 17.2899Z" fill="white"/>
</g>
<rect x="2.5" y="1.5" width="29" height="29" rx="7.5" stroke="#0194BE"/>
</g>
<defs>
<filter id="filter0_d_8206_22109" x="0" y="0" width="34" height="34" filterUnits="userSpaceOnUse" color-interpolation-filters="sRGB">
<feFlood flood-opacity="0" result="BackgroundImageFix"/>
<feColorMatrix in="SourceAlpha" type="matrix" values="0 0 0 0 0 0 0 0 0 0 0 0 0 0 0 0 0 0 127 0" result="hardAlpha"/>
<feOffset dy="1"/>
<feGaussianBlur stdDeviation="1"/>
<feColorMatrix type="matrix" values="0 0 0 0 0.0627451 0 0 0 0 0.0941176 0 0 0 0 0.156863 0 0 0 0.05 0"/>
<feBlend mode="normal" in2="BackgroundImageFix" result="effect1_dropShadow_8206_22109"/>
<feBlend mode="normal" in="SourceGraphic" in2="effect1_dropShadow_8206_22109" result="shape"/>
</filter>
<clipPath id="clip0_8206_22109">
<rect width="18" height="18" fill="white" transform="translate(8 7)"/>
</clipPath>
</defs>
</svg>
